<?xml version="1.0" encoding="utf-8"?>
<!-- Generator: Adobe Illustrator 27.3.1, SVG Export Plug-In . SVG Version: 6.00 Build 0)  -->
<svg version="1.1" id="Layer_1" xmlns="http://www.w3.org/2000/svg" xmlns:xlink="http://www.w3.org/1999/xlink" x="0px" y="0px"
	 viewBox="0 0 538.58 85.04" style="enable-background:new 0 0 538.58 85.04;" xml:space="preserve">
<style type="text/css">
	.st0{fill-rule:evenodd;clip-rule:evenodd;fill:#60269E;}
	.st1{fill-rule:evenodd;clip-rule:evenodd;fill:#38D430;}
</style>
<g>
	<path class="st0" d="M225.79,8.43L225.79,8.43c3.37,0,6.13,2.76,6.13,6.13v40.26c0,3.37-2.76,6.13-6.13,6.13
		c-3.38,0-6.13-2.76-6.13-6.13V14.56C219.65,11.19,222.41,8.43,225.79,8.43"/>
	<g>
		<path class="st0" d="M268.69,36.42c6.75,0,12.27,5.52,12.27,12.27c0,6.75-5.52,12.27-12.27,12.27l-24.52,0
			c-3.37,0-6.14-2.76-6.14-6.13c0-3.37,2.76-6.14,6.14-6.14h24.52V36.42z"/>
		<path class="st0" d="M238.04,30.25L238.04,30.25c0,3.39,2.78,6.17,6.17,6.17h24.49c0-6.79-5.55-12.34-12.34-12.34h-12.15
			C240.81,24.08,238.04,26.85,238.04,30.25"/>
	</g>
	<g>
		<path class="st0" d="M144.58,24.08L144.58,24.08c3.37,0,6.14,2.76,6.14,6.13v18.47c-6.75,0-12.27-5.52-12.27-12.27v-6.2
			C138.45,26.84,141.21,24.08,144.58,24.08"/>
		<path class="st0" d="M201.25,48.69h-50.53c0,6.75,5.52,12.27,12.27,12.27h38.26c6.64,0,12.1-5.35,12.27-11.95c0,0,0-17.22,0-18.79
			c0-3.37-2.76-6.13-6.13-6.13c-3.37,0-6.13,2.76-6.13,6.13V48.69z"/>
	</g>
	<path class="st0" d="M173.63,24.08h12.27c3.37,0,6.13,2.76,6.13,6.13v0c0,3.37-2.76,6.13-6.13,6.13h-24.54
		C161.36,29.6,166.88,24.08,173.63,24.08"/>
	<g>
		<rect x="464.56" y="44" class="st0" width="12.27" height="12.27"/>
		<path class="st0" d="M495.03,6.31h-36.4c-8.93,0-16.24,7.31-16.24,16.24v36.4c0,10.72,8.77,19.48,19.48,19.48h36.4
			c8.93,0,16.24-7.31,16.24-16.24V25.8C514.51,15.08,505.74,6.31,495.03,6.31z M489.1,56.26c0,6.75-5.52,12.27-12.27,12.27h-12.27
			c-6.75,0-12.27-5.52-12.27-12.27V22.35c0-3.37,2.76-6.13,6.14-6.13c3.37,0,6.13,2.76,6.13,6.13v21.65
			c0-6.75,5.52-12.27,12.27-12.27h0v0c6.75,0,12.27,5.52,12.27,12.27V56.26z"/>
	</g>
	<path class="st0" d="M24.07,48.69h12.27V36.42H24.07V48.69z M36.34,24.15c6.75,0,12.27,5.52,12.27,12.27v12.27
		c0,6.75-5.52,12.27-12.27,12.27v0h0c-6.75,0-12.27-5.52-12.27-12.27v20.47c0,3.37-2.76,6.13-6.13,6.13c-3.38,0-6.14-2.76-6.14-6.13
		V36.42c0-6.75,5.52-12.27,12.27-12.27H36.34z"/>
	<g>
		<path class="st0" d="M120.21,36.42L120.21,36.42c6.75,0,12.27,5.52,12.27,12.27c0,6.75-5.52,12.27-12.27,12.27v0H79.28
			c-6.75,0-12.27-5.52-12.27-12.27v0h53.2V36.42z"/>
		<path class="st0" d="M60.88,8.43L60.88,8.43c3.37,0,6.13,2.76,6.13,6.13v34.13c-6.75,0-12.27-5.52-12.27-12.27V14.56
			C54.74,11.19,57.5,8.43,60.88,8.43"/>
		<path class="st0" d="M120.21,36.42c0-6.75-5.52-12.27-12.27-12.27H93.67l5.33-5.33c2.39-2.39,2.39-6.29,0-8.68
			c-2.39-2.39-6.29-2.39-8.68,0L75,25.46c-1.44,1.13-2.39,2.86-2.39,4.82v0c0,0.83,0.17,1.63,0.48,2.36
			c0.3,0.75,0.75,1.46,1.35,2.06c1.39,1.39,3.29,1.94,5.11,1.72L120.21,36.42L120.21,36.42z"/>
	</g>
	<path class="st0" d="M430.12,66.17L430.12,66.17v12.27h-12.27C417.85,71.69,423.37,66.17,430.12,66.17"/>
	<path class="st1" d="M526.78,66.17L526.78,66.17v12.27h-12.27C514.51,71.69,520.03,66.17,526.78,66.17"/>
	<g>
		<path class="st0" d="M294.19,61.13L294.19,61.13c3.39,0,6.17-2.78,6.17-6.17V36.35c-6.79,0-12.34,5.55-12.34,12.34v6.27
			C288.02,58.35,290.8,61.13,294.19,61.13"/>
		<path class="st0" d="M344.23,48.69h12.27V36.42h-12.27V48.69z M368.77,36.42L368.77,36.42l0,12.27c0,6.75-5.52,12.27-12.27,12.27
			v0h0c-6.74,0-12.26-5.51-12.27-12.26c-0.01,6.74-5.53,12.26-12.27,12.26h-7.06c-6.75,0-12.27-5.52-12.27-12.27V36.35h-12.27
			c0-6.75,5.52-12.27,12.27-12.27c6.75,0,12.27,5.52,12.27,12.27h0v12.34h7.06V36.42c0-6.79,5.55-12.34,12.34-12.34h12.13
			C363.22,24.08,368.77,29.63,368.77,36.42z"/>
	</g>
	<path class="st0" d="M423.98,24.08c-3.37,0-6.14,2.76-6.14,6.13v18.47h-18.4c0,6.75,5.52,12.27,12.27,12.27h6.13
		c6.64,0,12.08-5.35,12.25-11.95h0.02V30.21C430.12,26.84,427.36,24.08,423.98,24.08z"/>
	<path class="st0" d="M393.31,24.08c-3.37,0-6.14,2.76-6.14,6.13v18.47h-18.4c0,6.75,5.52,12.27,12.27,12.27h6.13
		c6.64,0,12.08-5.35,12.25-11.95h0.02V30.21C399.45,26.84,396.68,24.08,393.31,24.08z"/>
	<path class="st0" d="M381.04,66.17h12.27c3.37,0,6.14,2.76,6.14,6.13v0c0,3.37-2.76,6.13-6.14,6.13h-24.54
		C368.77,71.69,374.29,66.17,381.04,66.17"/>
</g>
</svg>
